# xmcd
#
# Track frame offsets:
#	150
#	19669
#	42542
#	67323
#	89524
#	110579
#	127424
#	153780
#	177949
#	196725
#	214902
#	247324
#
# Disc length: 3581 seconds
#
# Revision: 3
# Processed by: cddbd v1.5.2PL0 Copyright (c) Steve Scherf et al.
# Submitted via: EZCDAudioConverter 8.0.2.1
#
DISCID=b80dfb0c
DTITLE=Ý Lan - Một Đời Đắm Say
DYEAR=2000
DGENRE=
TTITLE0=Sa mạc tình yêu
TTITLE1=Bản tình cuối
TTITLE2=Tình
TTITLE3=Một nửa đời em
TTITLE4=Hãy yêu như chưa yêu lần nào
TTITLE5=Quỳnh hương
TTITLE6=Như đã dấu yêu
TTITLE7=Bài không tên số 8
TTITLE8=Parole
TTITLE9=Ghen
TTITLE10=Ô cửa mùa đông
TTITLE11=Không còn mùa thu
EXTD=
EXTT0=
EXTT1=
EXTT2=
EXTT3=
EXTT4=
EXTT5=
EXTT6=
EXTT7=
EXTT8=
EXTT9=
EXTT10=
EXTT11=
PLAYORDER=
